<svg width="412" height="120" viewBox="0 0 412 120" fill="none" xmlns="http://www.w3.org/2000/svg">
<path d="M28.7808 75.6096L44.3904 60L87.0566 102.666C89.3555 104.965 89.3555 108.692 87.0566 110.991L79.7721 118.276C77.4732 120.575 73.7459 120.575 71.447 118.276L28.7808 75.6096Z" fill="#5EEAD4"/>
<path d="M44.3904 60L60 75.6096L17.3338 118.276C15.0349 120.575 11.3076 120.575 9.00866 118.276L1.72419 110.991C-0.574729 108.692 -0.574729 104.965 1.72419 102.666L44.3904 60Z" fill="#5EEAD4"/>
<path d="M1.72419 48.553C-0.574729 46.254 -0.574729 42.5268 1.72419 40.2278L9.00866 32.9434C11.3076 30.6445 15.0349 30.6445 17.3338 32.9434L60 75.6096L44.3904 91.2192L1.72419 48.553Z" fill="#10B981"/>
<path d="M102.666 1.72419C104.965 -0.57473 108.692 -0.574728 110.991 1.72419L118.276 9.00866C120.575 11.3076 120.575 15.0349 118.276 17.3338L44.3904 91.2192L28.7808 75.6096L102.666 1.72419Z" fill="#10B981"/>
<path d="M208.1 38.1V118.5H197.3L195.35 107.85H194.75C193.05 110.65 190.85 112.95 188.15 114.75C185.45 116.55 182.5 117.85 179.3 118.65C176.1 119.55 172.75 120 169.25 120C162.85 120 157.45 119 153.05 117C148.75 114.9 145.5 111.7 143.3 107.4C141.1 103.1 140 97.55 140 90.75V38.1H153.35V89.85C153.35 96.25 154.8 101.05 157.7 104.25C160.6 107.45 165.1 109.05 171.2 109.05C177.2 109.05 181.9 107.95 185.3 105.75C188.8 103.45 191.25 100.15 192.65 95.85C194.15 91.45 194.9 86.15 194.9 79.95V38.1H208.1Z" fill="#1F2937"/>
<path d="M272.325 36.6C281.925 36.6 289.175 38.95 294.075 43.65C298.975 48.25 301.425 55.75 301.425 66.15V118.5H288.375V67.05C288.375 60.55 286.925 55.7 284.025 52.5C281.125 49.3 276.575 47.7 270.375 47.7C261.475 47.7 255.325 50.2 251.925 55.2C248.525 60.2 246.825 67.4 246.825 76.8V118.5H233.625V38.1H244.275L246.225 49.05H246.975C248.775 46.25 250.975 43.95 253.575 42.15C256.275 40.25 259.225 38.85 262.425 37.95C265.625 37.05 268.925 36.6 272.325 36.6Z" fill="#1F2937"/>
<path d="M378.699 96.3C378.699 101.5 377.399 105.85 374.799 109.35C372.199 112.85 368.499 115.5 363.699 117.3C358.899 119.1 353.199 120 346.599 120C340.999 120 336.149 119.55 332.049 118.65C328.049 117.75 324.499 116.5 321.399 114.9V102.9C324.599 104.5 328.449 106 332.949 107.4C337.549 108.7 342.199 109.35 346.899 109.35C353.599 109.35 358.449 108.3 361.449 106.2C364.449 104 365.949 101.1 365.949 97.5C365.949 95.5 365.399 93.7 364.299 92.1C363.199 90.5 361.199 88.9 358.299 87.3C355.499 85.7 351.449 83.9 346.149 81.9C340.949 79.9 336.499 77.9 332.799 75.9C329.099 73.9 326.249 71.5 324.249 68.7C322.249 65.9 321.249 62.3 321.249 57.9C321.249 51.1 323.999 45.85 329.499 42.15C335.099 38.45 342.399 36.6 351.399 36.6C356.299 36.6 360.849 37.1 365.049 38.1C369.349 39 373.349 40.3 377.049 42L372.549 52.5C370.349 51.5 367.999 50.65 365.499 49.95C363.099 49.15 360.649 48.55 358.149 48.15C355.649 47.65 353.099 47.4 350.499 47.4C345.099 47.4 340.949 48.3 338.049 50.1C335.249 51.8 333.849 54.15 333.849 57.15C333.849 59.35 334.499 61.25 335.799 62.85C337.099 64.35 339.249 65.85 342.249 67.35C345.349 68.75 349.449 70.45 354.549 72.45C359.649 74.35 363.999 76.3 367.599 78.3C371.199 80.3 373.949 82.75 375.849 85.65C377.749 88.45 378.699 92 378.699 96.3Z" fill="#1F2937"/>
<path d="M411.327 38.1V118.5H398.127V38.1H411.327Z" fill="#1F2937"/>
</svg>
