<svg width="164" height="164" viewBox="0 0 164 164" fill="none" xmlns="http://www.w3.org/2000/svg">
<path d="M39.5736 103.213L60.7868 82L118.77 139.983C121.894 143.107 121.894 148.172 118.77 151.296L108.87 161.196C105.746 164.32 100.681 164.32 97.5563 161.196L39.5736 103.213Z" fill="#5EEAD4"/>
<path d="M60.7868 82L82 103.213L24.0172 161.196C20.893 164.32 15.8277 164.32 12.7035 161.196L2.80404 151.296C-0.320157 148.172 -0.320157 143.107 2.80404 139.983L60.7868 82Z" fill="#5EEAD4"/>
<path d="M2.80404 66.4436C-0.320157 63.3195 -0.320157 58.2541 2.80404 55.1299L12.7035 45.2304C15.8277 42.1063 20.893 42.1063 24.0172 45.2304L82 103.213L60.7868 124.426L2.80404 66.4436Z" fill="#10B981"/>
<path d="M139.983 2.80404C143.107 -0.32015 148.172 -0.320148 151.296 2.80405L161.196 12.7035C164.32 15.8277 164.32 20.8931 161.196 24.0173L60.7868 124.426L39.5736 103.213L139.983 2.80404Z" fill="#10B981"/>
</svg>
